{
  "accessors": [
    {
      "bufferView": 2,
      "componentType": 5126,
      "count": 1382,
      "max": [
        0.508324921131134,
        0.5410673022270203,
        0.682915449142456
      ],
      "min": [
        0.008874882012605667,
        -1.4229731559753418,
        0.11203020066022873
      ],
      "type": "VEC3"
    },
    {
      "bufferView": 2,
      "byteOffset": 16584,
      "componentType": 5126,
      "count": 1382,
      "max": [
        0.9987905621528625,
        0.8279924392700195,
        0.9996294975280762
      ],
      "min": [
        -0.999464750289917,
        -0.9928973317146301,
        -0.9997764229774475
      ],
      "type": "VEC3"
    },
    {
      "bufferView": 3,
      "componentType": 5126,
      "count": 1382,
      "max": [
        7.035463600828099e-17,
        1.401298464324817e-45,
        1.401298464324817e-45,
        1.0
      ],
      "min": [
        7.035454998149729e-17,
        0.0,
        0.0,
        0.9999997615814209
      ],
      "type": "VEC4"
    },
    {
      "bufferView": 1,
      "componentType": 5126,
      "count": 1382,
      "max": [
        1.0,
        1.0000001192092896
      ],
      "min": [
        0.0,
        1.1920928955078125e-07
      ],
      "type": "VEC2"
    },
    {
      "bufferView": 0,
      "componentType": 5125,
      "count": 8160,
      "type": "SCALAR"
    },
    {
      "bufferView": 2,
      "byteOffset": 33168,
      "componentType": 5126,
      "count": 415,
      "max": [
        0.23608049750328064,
        -0.8640857934951782,
        0.4130224287509918
      ],
      "min": [
        0.09883278608322144,
        -2.1506845951080322,
        0.2754138708114624
      ],
      "type": "VEC3"
    },
    {
      "bufferView": 2,
      "byteOffset": 38148,
      "componentType": 5126,
      "count": 415,
      "max": [
        0.9999713897705078,
        0.9703776836395264,
        0.9993864893913269
      ],
      "min": [
        -0.9998946189880371,
        -0.9947531223297119,
        -0.9999585151672363
      ],
      "type": "VEC3"
    },
    {
      "bufferView": 3,
      "byteOffset": 22112,
      "componentType": 5126,
      "count": 415,
      "max": [
        0.0,
        0.0,
        0.0,
        0.0
      ],
      "min": [
        0.0,
        0.0,
        0.0,
        0.0
      ],
      "type": "VEC4"
    },
    {
      "bufferView": 1,
      "byteOffset": 11056,
      "componentType": 5126,
      "count": 415,
      "max": [
        0.65625,
        0.9923526048660278
      ],
      "min": [
        0.3735910654067993,
        0.007647410035133362
      ],
      "type": "VEC2"
    },
    {
      "bufferView": 0,
      "byteOffset": 32640,
      "componentType": 5125,
      "count": 2160,
      "type": "SCALAR"
    },
    {
      "bufferView": 2,
      "byteOffset": 43128,
      "componentType": 5126,
      "count": 1409,
      "max": [
        1.2922567129135132,
        -1.0571308135986328,
        1.2640851736068726
      ],
      "min": [
        -0.9146573543548584,
        -3.745650053024292,
        -0.9726790189743042
      ],
      "type": "VEC3"
    },
    {
      "bufferView": 2,
      "byteOffset": 60036,
      "componentType": 5126,
      "count": 1409,
      "max": [
        0.9991447329521179,
        0.9999657869338989,
        0.9999105334281921
      ],
      "min": [
        -0.9994088411331177,
        -1.0,
        -0.9983168244361877
      ],
      "type": "VEC3"
    },
    {
      "bufferView": 3,
      "byteOffset": 28752,
      "componentType": 5126,
      "count": 1409,
      "max": [
        0.0,
        0.0,
        0.0,
        0.0
      ],
      "min": [
        0.0,
        0.0,
        0.0,
        0.0
      ],
      "type": "VEC4"
    },
    {
      "bufferView": 1,
      "byteOffset": 14376,
      "componentType": 5126,
      "count": 1409,
      "max": [
        0.65625,
        1.0
      ],
      "min": [
        0.3437499701976776,
        -7.450580596923828e-08
      ],
      "type": "VEC2"
    },
    {
      "bufferView": 0,
      "byteOffset": 41280,
      "componentType": 5125,
      "count": 7920,
      "type": "SCALAR"
    },
    {
      "bufferView": 2,
      "byteOffset": 76944,
      "componentType": 5126,
      "count": 1521,
      "max": [
        1.2032277584075928,
        -1.1974049806594849,
        1.0597666501998901
      ],
      "min": [
        -0.7292463779449463,
        -3.2149605751037598,
        -0.39871618151664734
      ],
      "type": "VEC3"
    },
    {
      "bufferView": 2,
      "byteOffset": 95196,
      "componentType": 5126,
      "count": 1521,
      "max": [
        0.9999759197235107,
        0.9998145699501038,
        0.9999700784683228
      ],
      "min": [
        -0.9993450045585632,
        -0.9999669790267944,
        -0.9989811778068542
      ],
      "type": "VEC3"
    },
    {
      "bufferView": 3,
      "byteOffset": 51296,
      "componentType": 5126,
      "count": 1521,
      "max": [
        0.0,
        0.0,
        0.0,
        0.0
      ],
      "min": [
        0.0,
        0.0,
        0.0,
        0.0
      ],
      "type": "VEC4"
    },
    {
      "bufferView": 1,
      "byteOffset": 25648,
      "componentType": 5126,
      "count": 1521,
      "max": [
        1.0,
        0.9528059959411621
      ],
      "min": [
        0.0,
        0.007647410035133362
      ],
      "type": "VEC2"
    },
    {
      "bufferView": 0,
      "byteOffset": 72960,
      "componentType": 5125,
      "count": 8400,
      "type": "SCALAR"
    },
    {
      "bufferView": 2,
      "byteOffset": 113448,
      "componentType": 5126,
      "count": 121,
      "max": [
        0.5,
        1.1102230246251565e-16,
        0.5
      ],
      "min": [
        -0.5,
        -1.1102230246251565e-16,
        -0.5
      ],
      "type": "VEC3"
    },
    {
      "bufferView": 2,
      "byteOffset": 114900,
      "componentType": 5126,
      "count": 121,
      "max": [
        0.0,
        1.0,
        2.220446578645905e-16
      ],
      "min": [
        0.0,
        1.0,
        2.220445255156925e-16
      ],
      "type": "VEC3"
    },
    {
      "bufferView": 1,
      "byteOffset": 37816,
      "componentType": 5126,
      "count": 121,
      "max": [
        1.0,
        1.0
      ],
      "min": [
        0.0,
        0.0
      ],
      "type": "VEC2"
    },
    {
      "bufferView": 0,
      "byteOffset": 106560,
      "componentType": 5125,
      "count": 600,
      "type": "SCALAR"
    }
  ],
  "asset": {
    "extras": {
      "author": "sergiulupse (https://sketchfab.com/sergiulupse)",
      "license": "CC-BY-4.0 (http://creativecommons.org/licenses/by/4.0/)",
      "source": "https://sketchfab.com/3d-models/candle-48c03ba452f24951bbe763dc03104551",
      "title": "Candle"
    },
    "generator": "Sketchfab-12.67.0",
    "version": "2.0"
  },
  "bufferViews": [
    {
      "buffer": 0,
      "byteLength": 108960,
      "name": "floatBufferViews",
      "target": 34963
    },
    {
      "buffer": 0,
      "byteLength": 38784,
      "byteOffset": 108960,
      "byteStride": 8,
      "name": "floatBufferViews",
      "target": 34962
    },
    {
      "buffer": 0,
      "byteLength": 116352,
      "byteOffset": 147744,
      "byteStride": 12,
      "name": "floatBufferViews",
      "target": 34962
    },
    {
      "buffer": 0,
      "byteLength": 75632,
      "byteOffset": 264096,
      "byteStride": 16,
      "name": "floatBufferViews",
      "target": 34962
    }
  ],
  "buffers": [
    {
      "byteLength": 339728,
      "uri": "scene.bin"
    }
  ],
  "extensionsRequired": [
    "KHR_materials_pbrSpecularGlossiness"
  ],
  "extensionsUsed": [
    "KHR_materials_pbrSpecularGlossiness"
  ],
  "materials": [
    {
      "alphaMode": "BLEND",
      "doubleSided": true,
      "emissiveFactor": [
        1.0,
        1.0,
        0.03390030635045166
      ],
      "extensions": {
        "KHR_materials_pbrSpecularGlossiness": {
          "diffuseFactor": [
            0.5,
            0.5,
            0.5,
            0.55
          ],
          "glossinessFactor": 0.25,
          "specularFactor": [
            0.0,
            0.0,
            0.0
          ]
        }
      },
      "name": "flame"
    },
    {
      "doubleSided": true,
      "extensions": {
        "KHR_materials_pbrSpecularGlossiness": {
          "diffuseFactor": [
            0.0564103,
            0.0564103,
            0.0564103,
            1.0
          ],
          "glossinessFactor": 0.4,
          "specularFactor": [
            0.0,
            0.0,
            0.0
          ]
        }
      },
      "name": "wich"
    },
    {
      "doubleSided": true,
      "emissiveFactor": [
        0.08741016688625403,
        0.02822687103801094,
        0.00032303177036161195
      ],
      "extensions": {
        "KHR_materials_pbrSpecularGlossiness": {
          "diffuseFactor": [
            0.8020000000000002,
            0.7484049999999998,
            0.39297999999999983,
            1.0
          ],
          "glossinessFactor": 0.24,
          "specularFactor": [
            0.11,
            0.11,
            0.11
          ]
        }
      },
      "name": "candle"
    },
    {
      "alphaMode": "BLEND",
      "doubleSided": true,
      "emissiveFactor": [
        0.0828292110066717,
        0.0633537824805127,
        0.01893732780975989
      ],
      "extensions": {
        "KHR_materials_pbrSpecularGlossiness": {
          "diffuseFactor": [
            0.9022800986427694,
            0.4677681809454918,
            0.06141332859115394,
            0.74
          ],
          "glossinessFactor": 0.0,
          "specularFactor": [
            0.56,
            0.56,
            0.56
          ]
        }
      },
      "name": "liquid"
    },
    {
      "alphaMode": "BLEND",
      "doubleSided": true,
      "extensions": {
        "KHR_materials_pbrSpecularGlossiness": {
          "diffuseFactor": [
            0.0772,
            0.05539999999999999,
            0.0424,
            0.82
          ],
          "glossinessFactor": 0.18,
          "specularFactor": [
            0.0,
            0.0,
            0.0
          ]
        }
      },
      "name": "lambert1"
    }
  ],
  "meshes": [
    {
      "name": "pCone2_flame_0",
      "primitives": [
        {
          "attributes": {
            "COLOR_0": 2,
            "NORMAL": 1,
            "POSITION": 0,
            "TEXCOORD_0": 3
          },
          "indices": 4,
          "material": 0,
          "mode": 4
        }
      ]
    },
    {
      "name": "pCone2_wich_0",
      "primitives": [
        {
          "attributes": {
            "COLOR_0": 7,
            "NORMAL": 6,
            "POSITION": 5,
            "TEXCOORD_0": 8
          },
          "indices": 9,
          "material": 1,
          "mode": 4
        }
      ]
    },
    {
      "name": "pCone2_candle_0",
      "primitives": [
        {
          "attributes": {
            "COLOR_0": 12,
            "NORMAL": 11,
            "POSITION": 10,
            "TEXCOORD_0": 13
          },
          "indices": 14,
          "material": 2,
          "mode": 4
        }
      ]
    },
    {
      "name": "pCone2_liquid_0",
      "primitives": [
        {
          "attributes": {
            "COLOR_0": 17,
            "NORMAL": 16,
            "POSITION": 15,
            "TEXCOORD_0": 18
          },
          "indices": 19,
          "material": 3,
          "mode": 4
        }
      ]
    },
    {
      "name": "pPlane1_lambert1_0",
      "primitives": [
        {
          "attributes": {
            "NORMAL": 21,
            "POSITION": 20,
            "TEXCOORD_0": 22
          },
          "indices": 23,
          "material": 4,
          "mode": 4
        }
      ]
    }
  ],
  "nodes": [
    {
      "children": [
        1
      ],
      "matrix": [
        0.08904596418142319,
        0.0,
        0.0,
        0.0,
        0.0,
        1.97721759368326e-17,
        -0.08904596418142319,
        0.0,
        0.0,
        0.08904596418142319,
        1.97721759368326e-17,
        0.0,
        0.0,
        0.0,
        0.0,
        1.0
      ],
      "name": "Sketchfab_model"
    },
    {
      "children": [
        2
      ],
      "matrix": [
        1.0,
        0.0,
        0.0,
        0.0,
        0.0,
        0.0,
        1.0,
        0.0,
        0.0,
        -1.0,
        0.0,
        0.0,
        0.0,
        0.0,
        0.0,
        1.0
      ],
      "name": "718882c0c0784140be601b5287133df1.fbx"
    },
    {
      "children": [
        3,
        8,
        11,
        13,
        16
      ],
      "name": "RootNode"
    },
    {
      "children": [
        4,
        5,
        6,
        7
      ],
      "name": "pCone2"
    },
    {
      "mesh": 0,
      "name": "pCone2_flame_0"
    },
    {
      "mesh": 1,
      "name": "pCone2_wich_0"
    },
    {
      "mesh": 2,
      "name": "pCone2_candle_0"
    },
    {
      "mesh": 3,
      "name": "pCone2_liquid_0"
    },
    {
      "children": [
        9
      ],
      "matrix": [
        1.0,
        0.0,
        0.0,
        0.0,
        0.0,
        1.0,
        0.0,
        0.0,
        0.0,
        0.0,
        1.0,
        0.0,
        0.8662806749343872,
        -0.7875146865844727,
        0.598124623298645,
        1.0
      ],
      "name": "pointLight1"
    },
    {
      "children": [
        10
      ],
      "matrix": [
        1.0,
        0.0,
        0.0,
        0.0,
        0.0,
        2.220446049250313e-16,
        1.0,
        0.0,
        0.0,
        -1.0,
        2.220446049250313e-16,
        0.0,
        0.0,
        0.0,
        0.0,
        1.0
      ],
      "name": "Object_9"
    },
    {
      "name": "Object_10"
    },
    {
      "children": [
        12
      ],
      "matrix": [
        7.936950206756592,
        0.0,
        0.0,
        0.0,
        0.0,
        7.936950206756592,
        0.0,
        0.0,
        0.0,
        0.0,
        7.936950206756592,
        0.0,
        0.0,
        -3.726516008377075,
        0.0,
        1.0
      ],
      "name": "pPlane1"
    },
    {
      "mesh": 4,
      "name": "pPlane1_lambert1_0"
    },
    {
      "children": [
        14
      ],
      "matrix": [
        0.9996881017601665,
        0.024973970432328935,
        6.898236322439022e-18,
        0.0,
        -0.02497315523779789,
        0.999655470173791,
        -0.008079756746693261,
        0.0,
        -0.00020178360609233466,
        0.008077236684785686,
        0.9999673582327147,
        0.0,
        -0.05502359941601753,
        1.8362147808074951,
        0.0,
        1.0
      ],
      "name": "spotLight1"
    },
    {
      "children": [
        15
      ],
      "matrix": [
        1.0,
        0.0,
        0.0,
        0.0,
        0.0,
        2.220446049250313e-16,
        1.0,
        0.0,
        0.0,
        -1.0,
        2.220446049250313e-16,
        0.0,
        0.0,
        0.0,
        0.0,
        1.0
      ],
      "name": "Object_14"
    },
    {
      "name": "Object_15"
    },
    {
      "children": [
        17
      ],
      "matrix": [
        -0.9273094809532676,
        -0.37360877529739983,
        -0.022662955565378243,
        0.0,
        -0.37349724926013134,
        0.9275863749650364,
        -0.009128076157564793,
        0.0,
        0.024432178152932076,
        5.204170427930421e-17,
        -0.9997014897811762,
        0.0,
        10.97635555267334,
        2.5584795475006104,
        0.39178794622421265,
        1.0
      ],
      "name": "persp1"
    },
    {
      "name": "Object_17"
    }
  ],
  "scene": 0,
  "scenes": [
    {
      "name": "Sketchfab_Scene",
      "nodes": [
        0
      ]
    }
  ]
}
